<svg xmlns="http://www.w3.org/2000/svg" width="640" height="320" viewBox="0 0 640 320">
  <rect width="100%" height="100%" fill="white"/>
  <g stroke="#d9dee7" stroke-width="1">
    <path d="M80 40V260M140 40V260M200 40V260M260 40V260M320 40V260M380 40V260M440 40V260M500 40V260M560 40V260"/>
    <path d="M80 260H560M80 210H560M80 160H560M80 110H560M80 60H560"/>
  </g>
  <g stroke="#222" stroke-width="2" fill="none">
    <path d="M80 160H580"/>
    <path d="M80 280V20"/>
  </g>
  <g font-family="Arial, sans-serif" font-size="16" fill="#222">
    <text x="585" y="165">t [s]</text>
    <text x="32" y="26">v [m/s]</text>
    <text x="75" y="178">0</text>
    <text x="253" y="178">3</text>
    <text x="433" y="178">6</text>
    <text x="553" y="178">8</text>
    <text x="59" y="65">6</text>
    <text x="53" y="215">-2</text>
    <text x="75" y="278">0</text>
    <text x="253" y="278">3</text>
    <text x="433" y="278">6</text>
    <text x="493" y="278">8</text>
    <text x="553" y="278">10</text>
  </g>
  <polyline points="80,160 260,60 440,60 500,210 560,160" fill="none" stroke="#ec4899" stroke-width="5" stroke-linecap="round" stroke-linejoin="round"/>
</svg>
