<svg xmlns="http://www.w3.org/2000/svg" width="640" height="300" viewBox="0 0 640 300">
  <rect width="100%" height="100%" fill="white"/>
  <g stroke="#d9dee7" stroke-width="1">
    <path d="M80 40V240M160 40V240M240 40V240M320 40V240M400 40V240M480 40V240M560 40V240"/>
    <path d="M80 240H560M80 190H560M80 140H560M80 90H560M80 40H560"/>
  </g>
  <g stroke="#222" stroke-width="2" fill="none">
    <path d="M80 240H580"/>
    <path d="M80 260V20"/>
  </g>
  <g font-family="Arial, sans-serif" font-size="16" fill="#222">
    <text x="585" y="245">t [s]</text>
    <text x="32" y="26">x [m]</text>
    <text x="75" y="260">0</text>
    <text x="235" y="260">4</text>
    <text x="315" y="260">6</text>
    <text x="475" y="260">10</text>
    <text x="58" y="245">0</text>
    <text x="58" y="145">4</text>
    <text x="58" y="95">8</text>
  </g>
  <polyline points="80,240 240,40 320,40 480,240" fill="none" stroke="#2563eb" stroke-width="5" stroke-linecap="round" stroke-linejoin="round"/>
</svg>
